REM DIRINDEX 1\3,1\4,1\5,1\6,1\2\7,1\2\8,1\2\9,1\10
REM DIRNAME cjc056,folder01,folder02,folder03,folder04,folder05,folder06,folder07,folder08,folder09
TITLE ""
FILE "2-57 Level 6-1033-1043.mp3" MP3
  TRACK 01 AUDIO
    TITLE "0:"
    INDEX 01 00:00:00
  TRACK 02 AUDIO
    TITLE "7:cjc056_3511"
    INDEX 01 00:00:05
  TRACK 03 AUDIO
    TITLE "0:"
    INDEX 01 00:01:17
  TRACK 04 AUDIO
    TITLE "8:cjc056_3512"
    INDEX 01 00:01:24
  TRACK 05 AUDIO
    TITLE "0:"
    INDEX 01 00:02:24
  TRACK 06 AUDIO
    TITLE "9:cjc056_3513"
    INDEX 01 00:02:34
  TRACK 07 AUDIO
    TITLE "0:"
    INDEX 01 00:05:30
  TRACK 08 AUDIO
    TITLE "7:cjc056_3514"
    INDEX 01 00:06:08
  TRACK 09 AUDIO
    TITLE "0:"
    INDEX 01 00:07:21
  TRACK 10 AUDIO
    TITLE "8:cjc056_3515"
    INDEX 01 00:07:33
  TRACK 11 AUDIO
    TITLE "0:"
    INDEX 01 00:08:66
  TRACK 12 AUDIO
    TITLE "9:cjc056_3516"
    INDEX 01 00:09:02
  TRACK 13 AUDIO
    TITLE "0:"
    INDEX 01 00:12:05
  TRACK 14 AUDIO
    TITLE "7:cjc056_3517"
    INDEX 01 00:12:56
  TRACK 15 AUDIO
    TITLE "0:"
    INDEX 01 00:13:63
  TRACK 16 AUDIO
    TITLE "8:cjc056_3518"
    INDEX 01 00:13:73
  TRACK 17 AUDIO
    TITLE "0:"
    INDEX 01 00:16:00
  TRACK 18 AUDIO
    TITLE "9:cjc056_3519"
    INDEX 01 00:16:12
  TRACK 19 AUDIO
    TITLE "0:"
    INDEX 01 00:18:54
  TRACK 20 AUDIO
    TITLE "7:cjc056_3520"
    INDEX 01 00:19:28
  TRACK 21 AUDIO
    TITLE "0:"
    INDEX 01 00:20:30
  TRACK 22 AUDIO
    TITLE "8:cjc056_3521"
    INDEX 01 00:20:37
  TRACK 23 AUDIO
    TITLE "0:"
    INDEX 01 00:22:30
  TRACK 24 AUDIO
    TITLE "9:cjc056_3522"
    INDEX 01 00:22:42
  TRACK 25 AUDIO
    TITLE "0:"
    INDEX 01 00:25:11
  TRACK 26 AUDIO
    TITLE "7:cjc056_3523"
    INDEX 01 00:25:58
  TRACK 27 AUDIO
    TITLE "0:"
    INDEX 01 00:26:73
  TRACK 28 AUDIO
    TITLE "8:cjc056_3524"
    INDEX 01 00:27:08
  TRACK 29 AUDIO
    TITLE "0:"
    INDEX 01 00:28:55
  TRACK 30 AUDIO
    TITLE "9:cjc056_3525"
    INDEX 01 00:28:68
  TRACK 31 AUDIO
    TITLE "0:"
    INDEX 01 00:32:01
  TRACK 32 AUDIO
    TITLE "7:cjc056_3526"
    INDEX 01 00:32:50
  TRACK 33 AUDIO
    TITLE "0:"
    INDEX 01 00:33:40
  TRACK 34 AUDIO
    TITLE "8:cjc056_3527"
    INDEX 01 00:33:56
  TRACK 35 AUDIO
    TITLE "0:"
    INDEX 01 00:34:42
  TRACK 36 AUDIO
    TITLE "9:cjc056_3528"
    INDEX 01 00:34:55
  TRACK 37 AUDIO
    TITLE "0:"
    INDEX 01 00:37:07
  TRACK 38 AUDIO
    TITLE "7:cjc056_3529"
    INDEX 01 00:37:56
  TRACK 39 AUDIO
    TITLE "0:"
    INDEX 01 00:38:67
  TRACK 40 AUDIO
    TITLE "8:cjc056_3530"
    INDEX 01 00:39:03
  TRACK 41 AUDIO
    TITLE "0:"
    INDEX 01 00:40:13
  TRACK 42 AUDIO
    TITLE "9:cjc056_3531"
    INDEX 01 00:40:21
  TRACK 43 AUDIO
    TITLE "0:"
    INDEX 01 00:42:37
  TRACK 44 AUDIO
    TITLE "7:cjc056_3532"
    INDEX 01 00:43:13
  TRACK 45 AUDIO
    TITLE "0:"
    INDEX 01 00:44:24
  TRACK 46 AUDIO
    TITLE "8:cjc056_3533"
    INDEX 01 00:44:36
  TRACK 47 AUDIO
    TITLE "0:"
    INDEX 01 00:46:06
  TRACK 48 AUDIO
    TITLE "9:cjc056_3534"
    INDEX 01 00:46:17
  TRACK 49 AUDIO
    TITLE "0:"
    INDEX 01 00:49:02
  TRACK 50 AUDIO
    TITLE "7:cjc056_3535"
    INDEX 01 00:49:53
  TRACK 51 AUDIO
    TITLE "0:"
    INDEX 01 00:50:62
  TRACK 52 AUDIO
    TITLE "8:cjc056_3536"
    INDEX 01 00:51:01
  TRACK 53 AUDIO
    TITLE "0:"
    INDEX 01 00:52:55
  TRACK 54 AUDIO
    TITLE "9:cjc056_3537"
    INDEX 01 00:52:71
  TRACK 55 AUDIO
    TITLE "0:"
    INDEX 01 00:55:61
  TRACK 56 AUDIO
    TITLE "7:cjc056_3538"
    INDEX 01 00:56:43
  TRACK 57 AUDIO
    TITLE "0:"
    INDEX 01 00:57:46
  TRACK 58 AUDIO
    TITLE "8:cjc056_3539"
    INDEX 01 00:57:60
  TRACK 59 AUDIO
    TITLE "0:"
    INDEX 01 00:59:51
  TRACK 60 AUDIO
    TITLE "9:cjc056_3540"
    INDEX 01 00:59:61
  TRACK 61 AUDIO
    TITLE "0:"
    INDEX 01 01:03:14
  TRACK 62 AUDIO
    TITLE "7:cjc056_3541"
    INDEX 01 01:04:01
  TRACK 63 AUDIO
    TITLE "0:"
    INDEX 01 01:05:28
  TRACK 64 AUDIO
    TITLE "8:cjc056_3542"
    INDEX 01 01:05:40
  TRACK 65 AUDIO
    TITLE "0:"
    INDEX 01 01:06:67
  TRACK 66 AUDIO
    TITLE "9:cjc056_3543"
    INDEX 01 01:07:06
  TRACK 67 AUDIO
    TITLE "0:"
    INDEX 01 01:10:04
